<svg width="13" height="13" viewBox="0 0 13 13" fill="none" xmlns="http://www.w3.org/2000/svg">
<circle opacity="0.12" cx="6.37689" cy="6.31641" r="5.09259" fill="#111720"/>
<path fill-rule="evenodd" clip-rule="evenodd" d="M1.66623 6.31646C1.66623 3.71484 3.77526 1.60581 6.37688 1.60581C8.9785 1.60581 11.0875 3.71484 11.0875 6.31646C11.0875 8.91808 8.9785 11.0271 6.37688 11.0271C3.77526 11.0271 1.66623 8.91808 1.66623 6.31646ZM6.37688 0.841919C3.35338 0.841919 0.902344 3.29295 0.902344 6.31646C0.902344 9.33996 3.35338 11.791 6.37688 11.791C9.40038 11.791 11.8514 9.33996 11.8514 6.31646C11.8514 3.29295 9.40038 0.841919 6.37688 0.841919ZM6.75881 4.27943C6.75881 4.06849 6.58781 3.89749 6.37686 3.89749C6.16592 3.89749 5.99492 4.06849 5.99492 4.27943V5.93452H4.33983C4.12889 5.93452 3.95788 6.10553 3.95788 6.31647C3.95788 6.52741 4.12889 6.69841 4.33983 6.69841H5.99492V8.35351C5.99492 8.56445 6.16592 8.73545 6.37686 8.73545C6.58781 8.73545 6.75881 8.56445 6.75881 8.35351V6.69841H8.4139C8.62484 6.69841 8.79585 6.52741 8.79585 6.31647C8.79585 6.10553 8.62484 5.93452 8.4139 5.93452H6.75881V4.27943Z" fill="#FFFFFF"/>
</svg>
