<svg width="40" height="63" viewBox="0 0 40 63" fill="none" xmlns="http://www.w3.org/2000/svg">
<g clip-path="url(#clip0_20_546)">
<path d="M33.993 44.0316C33.9934 44.2431 33.9365 44.4508 33.8283 44.6322C33.7201 44.8137 33.5648 44.962 33.379 45.0612C33.0059 45.2868 32.5754 45.3982 32.1404 45.3816C31.0777 45.3745 30.0458 45.0229 29.1977 44.379C28.3435 43.7117 27.6472 42.862 27.1589 41.8914C26.8281 41.2129 26.5799 40.4967 26.4197 39.7584C26.3642 39.5028 26.221 38.7414 25.999 37.4778C25.8823 36.7506 25.713 36.0329 25.4925 35.3304C25.2232 35.4192 24.9481 35.489 24.6691 35.5392C24.4021 35.5922 24.1304 35.6176 23.8583 35.6148C23.3571 35.6292 22.8617 35.5047 22.4263 35.2548C22.2217 35.1315 22.0546 34.9543 21.9429 34.7424C21.8312 34.5304 21.7793 34.2919 21.7927 34.0524C21.7928 33.827 21.8525 33.6057 21.9658 33.4111C22.079 33.2166 22.2417 33.0559 22.437 32.9454C22.8259 32.709 23.2754 32.5932 23.7294 32.6124C24.1984 32.6205 24.6589 32.7395 25.0736 32.9598C25.5073 33.1864 25.8675 33.5331 26.1118 33.9588C26.9793 33.462 27.7222 32.6724 28.3403 31.59C29.0057 30.4416 29.3628 29.139 29.3767 27.81C29.3922 25.836 28.8254 24.1782 27.6762 22.8366C26.5271 21.495 25.0402 20.8122 23.2157 20.7882C22.4688 20.7638 21.7212 20.7993 20.98 20.8944C20.1433 21.0395 19.339 21.3333 18.6048 21.762C18.0575 22.0748 17.5652 22.4762 17.1477 22.95C16.6537 23.5242 16.4013 24.075 16.396 24.6042C16.3852 24.7266 16.3816 24.8076 16.3798 24.849C16.3706 25.1084 16.4247 25.3661 16.5374 25.5996C16.5761 25.6927 16.6408 25.7725 16.7238 25.8294C16.8067 25.8862 16.9042 25.9177 17.0045 25.92C17.0846 25.9258 17.165 25.9144 17.2403 25.8864C17.3156 25.8585 17.3842 25.8147 17.4413 25.758C17.5786 25.5761 17.6668 25.3615 17.6973 25.1352C17.7241 25.0128 17.7653 24.9552 17.8172 24.9552C17.8691 24.9552 17.9067 24.9984 17.9353 25.0794C18.087 25.3274 18.1577 25.6169 18.1376 25.9074C18.1406 26.2918 17.9949 26.6622 17.7313 26.9406C17.6113 27.0738 17.4645 27.1796 17.3006 27.251C17.1366 27.3224 16.9594 27.3577 16.7808 27.3546C16.5736 27.3515 16.3706 27.2957 16.1907 27.1925C16.0107 27.0893 15.8597 26.9419 15.7516 26.7642C15.481 26.3459 15.3465 25.8534 15.3667 25.3548C15.3766 24.4621 15.6758 23.5969 16.2188 22.8906C16.7116 22.2448 17.3183 21.6957 18.0087 21.2706C18.928 20.6663 19.9459 20.2295 21.0158 19.98C22.0207 19.7827 23.0444 19.6994 24.0677 19.7316C26.1345 19.7604 27.8839 20.4672 29.3158 21.852C30.8015 23.292 31.533 25.0638 31.5103 27.1674C31.5024 28.8966 30.9725 30.5826 29.9906 32.0022C29.1711 33.25 28.0253 34.2466 26.6792 34.8822C27.0216 35.4188 27.3146 35.9858 27.5545 36.576C27.829 37.2324 28.1016 37.989 28.3725 38.8458C28.786 40.1472 29.0885 41.0058 29.2514 41.4414C29.5459 42.2521 29.9488 43.0187 30.4488 43.7202C30.9518 44.3682 31.4995 44.694 32.0956 44.7048C32.3124 44.7067 32.5259 44.6514 32.7149 44.5446C32.8068 44.495 32.8851 44.4234 32.9429 44.3361C33.0006 44.2488 33.0361 44.1486 33.0461 44.0442C33.051 43.9086 33.0414 43.7728 33.0174 43.6392C32.9949 43.5505 32.9561 43.4669 32.9029 43.3926C32.8456 43.3152 32.8152 43.2576 32.8205 43.2126C32.8259 43.1676 32.8545 43.1208 32.9244 43.092C33.1701 43.069 33.415 43.144 33.6063 43.3008C33.73 43.3765 33.8312 43.4843 33.8992 43.6129C33.9672 43.7415 33.9996 43.8861 33.993 44.0316V44.0316ZM21.7855 46.665C21.8052 46.6956 21.8186 46.7299 21.8249 46.7658C21.8323 46.7928 21.8359 46.8206 21.8356 46.8486C21.8356 46.9656 21.7551 47.0286 21.5976 47.0286C21.3354 47.0266 21.0736 47.0092 20.8136 46.9764C20.5105 46.958 20.2104 46.9061 19.9186 46.8216C19.6382 46.8216 19.2157 46.8408 18.6513 46.8792C18.5024 46.8929 18.3527 46.8929 18.2038 46.8792C18.0534 46.8792 17.9801 46.8144 17.9819 46.6992C17.9795 46.6549 17.9936 46.6113 18.0212 46.5768C18.201 46.3903 18.3916 46.2148 18.5922 46.0512C18.8679 45.81 19.0039 45.5922 19.0057 45.3996L19.1525 25.7796C19.1638 25.6544 19.149 25.5283 19.1089 25.4092C19.0688 25.2902 19.0044 25.1809 18.9198 25.0884C18.787 25.0006 18.6483 24.9224 18.5045 24.8544C18.4168 24.813 18.3739 24.7608 18.3739 24.6996C18.3739 24.6384 18.4275 24.5682 18.5314 24.4584C18.7927 24.2982 19.02 24.1542 19.2241 24.0246C19.3744 23.9346 19.5958 23.7846 19.8881 23.5746C20.3041 23.2657 20.7038 22.9353 21.0856 22.5846C21.2279 22.449 21.3792 22.3233 21.5385 22.2084C21.6262 22.1796 21.687 22.1886 21.7175 22.2408C21.7353 22.2736 21.7447 22.3105 21.7447 22.3479C21.7447 22.3853 21.7353 22.4222 21.7175 22.455C21.518 22.848 21.3387 23.2512 21.1805 23.6628C21.0606 23.9774 20.9958 24.3105 20.989 24.6474L20.8315 45.4446C20.8315 45.6372 20.9621 45.855 21.2252 46.0908C21.4215 46.2726 21.6085 46.4642 21.7855 46.665ZM25.1631 34.4394C25.0569 34.129 24.851 33.863 24.5778 33.6834C24.3159 33.4957 24.0044 33.3904 23.6828 33.381C23.4511 33.3751 23.2227 33.4377 23.0259 33.561C22.9355 33.6124 22.8603 33.6873 22.8084 33.7779C22.7565 33.8684 22.7296 33.9713 22.7306 34.0758C22.726 34.2042 22.7608 34.331 22.8303 34.4389C22.8998 34.5467 23.0006 34.6305 23.119 34.6788C23.3677 34.7829 23.6355 34.8332 23.9048 34.8264C24.129 34.8241 24.3519 34.7908 24.5671 34.7274C24.7818 34.6695 24.984 34.5718 25.1631 34.4394V34.4394Z" fill="#E50695"/>
<path d="M5.66517 42.9264C5.76128 42.8507 5.87133 42.7949 5.98899 42.7621C6.10665 42.7294 6.22958 42.7204 6.35072 42.7356C6.41874 42.768 6.45454 42.8094 6.45454 42.8598C6.44099 42.9263 6.4108 42.9883 6.36683 43.0398C6.30947 43.1102 6.26849 43.1926 6.2469 43.281C6.21882 43.4141 6.20621 43.55 6.20931 43.686C6.21724 43.7908 6.25081 43.8919 6.30702 43.9805C6.36323 44.0691 6.44035 44.1423 6.53151 44.1936C6.7171 44.3078 6.9297 44.37 7.14725 44.3736C7.74151 44.3736 8.29819 44.0676 8.81011 43.4358C9.32932 42.7497 9.75102 41.9943 10.0631 41.1912C10.2421 40.764 10.5535 39.9078 10.9974 38.6226C11.2856 37.7712 11.5756 37.0224 11.8602 36.3726C12.1112 35.7899 12.4156 35.2318 12.7695 34.7058C11.4353 34.0306 10.311 33.0002 9.51893 31.7268C8.56629 30.2831 8.0708 28.5831 8.09771 26.8506C8.11919 24.7434 8.88648 22.992 10.3996 21.5964C11.859 20.2524 13.6215 19.5924 15.6871 19.6164C16.7106 19.6117 17.7314 19.7234 18.73 19.9494C19.7966 20.2272 20.8064 20.6909 21.7139 21.3192C22.3959 21.7655 22.991 22.3334 23.4698 22.995C23.9984 23.7135 24.2805 24.5853 24.2735 25.479C24.2826 25.9775 24.1368 26.4664 23.8564 26.8776C23.7447 27.0553 23.5893 27.201 23.4053 27.3006C23.2212 27.4003 23.0147 27.4505 22.8057 27.4464C22.6266 27.4438 22.45 27.403 22.2877 27.3267C22.1254 27.2504 21.981 27.1402 21.8642 27.0036C21.6071 26.7186 21.4704 26.3442 21.483 25.9596C21.4682 25.67 21.5439 25.383 21.6995 25.1388C21.7264 25.0578 21.7676 25.0164 21.8195 25.0164C21.8714 25.0164 21.9108 25.0794 21.9358 25.1964C21.9614 25.4244 22.0459 25.6416 22.181 25.8264C22.236 25.8857 22.3029 25.9324 22.3773 25.9634C22.4517 25.9945 22.5319 26.0091 22.6124 26.0064C22.7147 26.0079 22.8151 25.9787 22.9008 25.9226C22.9866 25.8665 23.0538 25.786 23.0939 25.6914C23.2136 25.461 23.2751 25.2044 23.2729 24.9444C23.2729 24.903 23.2729 24.822 23.2622 24.7014C23.2693 24.171 23.0307 23.6118 22.5462 23.0238C22.1377 22.5408 21.6541 22.1274 21.1142 21.7998C20.3905 21.3502 19.5928 21.0338 18.7587 20.8656C18.0151 20.7482 17.2631 20.6928 16.5105 20.7C14.6919 20.6712 13.1913 21.3114 12.0088 22.6206C10.8262 23.9298 10.2242 25.5696 10.2027 27.54C10.1869 28.8749 10.5176 30.1908 11.1621 31.3578C11.7588 32.4546 12.4849 33.264 13.3405 33.786C13.5922 33.3664 13.9597 33.0294 14.3983 32.8158C14.8186 32.6064 15.2826 32.5015 15.7515 32.5098C16.2063 32.5007 16.6537 32.6259 17.0385 32.8698C17.2315 32.9852 17.3906 33.1499 17.4997 33.3472C17.6088 33.5445 17.664 33.7673 17.6596 33.993C17.6699 34.2328 17.6142 34.4707 17.4986 34.6807C17.383 34.8906 17.212 35.0644 17.0045 35.1828C16.5655 35.4193 16.0697 35.5284 15.5725 35.4978C15.3004 35.495 15.0294 35.4643 14.7635 35.406C14.4853 35.3444 14.2109 35.2662 13.9419 35.172C13.7108 35.8681 13.5313 36.5805 13.4049 37.3032C13.1555 38.5608 12.9986 39.3174 12.9342 39.573C12.7608 40.3071 12.498 41.0168 12.1519 41.6862C11.6451 42.6421 10.932 43.4717 10.0649 44.1144C9.20247 44.7372 8.16218 45.0613 7.10071 45.0378C6.66409 45.0411 6.23604 44.916 5.86922 44.6778C5.68564 44.5732 5.53362 44.4206 5.42931 44.2362C5.325 44.0517 5.27228 43.8423 5.27675 43.6302C5.27506 43.4891 5.31 43.3499 5.37811 43.2265C5.44623 43.1031 5.54517 42.9996 5.66517 42.9264V42.9264ZM18.0892 46.0404C18.3577 45.81 18.4937 45.5976 18.4955 45.4032L18.6513 24.606C18.6488 24.2687 18.5882 23.9343 18.4723 23.6178C18.3263 23.2026 18.159 22.7952 17.9711 22.3974C17.954 22.3643 17.945 22.3276 17.945 22.2903C17.945 22.253 17.954 22.2163 17.9711 22.1832C18.0087 22.1328 18.0695 22.1238 18.1501 22.1544C18.3073 22.2729 18.4562 22.4022 18.5958 22.5414C18.9695 22.9034 19.3621 23.2453 19.7718 23.5656C20.0599 23.7834 20.2801 23.94 20.4269 24.0336C20.6274 24.1692 20.8547 24.3198 21.1089 24.4854C21.2127 24.6006 21.2664 24.6816 21.2646 24.7338C21.2628 24.786 21.2198 24.8454 21.1321 24.8832C20.9854 24.9464 20.8441 25.0217 20.7097 25.1082C20.6222 25.1976 20.5551 25.3051 20.513 25.4232C20.471 25.5414 20.455 25.6673 20.4663 25.7922L20.3213 45.4122C20.3213 45.6048 20.4519 45.8244 20.7204 46.0746C20.9172 46.2438 21.1043 46.4241 21.2807 46.6146C21.295 46.6314 21.3058 46.6509 21.3125 46.6719C21.3193 46.6929 21.3219 46.715 21.3201 46.737C21.3201 46.8594 21.2413 46.917 21.0927 46.917C20.9432 46.9219 20.7935 46.914 20.6453 46.8936C20.0814 46.836 19.6608 46.8036 19.3816 46.8018C19.0848 46.8793 18.7805 46.9234 18.474 46.9332C18.2135 46.9587 17.9517 46.9678 17.6901 46.9602C17.5325 46.9602 17.4538 46.9002 17.4538 46.7802C17.4561 46.7515 17.4615 46.7231 17.4699 46.6956C17.4755 46.6601 17.489 46.6262 17.5093 46.5966C17.5391 46.5702 17.7324 46.3848 18.0892 46.0404ZM14.8798 34.5888C15.0938 34.6595 15.3169 34.6983 15.5421 34.704C15.8106 34.719 16.0791 34.6761 16.3297 34.578C16.4494 34.5342 16.5524 34.4536 16.6241 34.3476C16.6957 34.2417 16.7324 34.1157 16.7288 33.9876C16.7333 33.8832 16.7096 33.7795 16.6601 33.6876C16.6106 33.5956 16.5372 33.5189 16.4478 33.4656C16.2516 33.3412 16.0247 33.2744 15.7927 33.273C15.4688 33.2714 15.1519 33.368 14.8834 33.5502C14.6081 33.7229 14.3982 33.9834 14.2874 34.29C14.4639 34.427 14.6651 34.5284 14.8798 34.5888V34.5888Z" fill="#E50695"/>
<path d="M3.20046 50.4C3.20046 49.5864 3.20046 49.4352 3.18972 49.2624C3.17898 49.0896 3.13781 48.9942 2.9606 48.9564C2.89196 48.9452 2.82251 48.9398 2.75297 48.9402C2.6939 48.9402 2.66168 48.9294 2.66168 48.8934C2.66168 48.8574 2.69927 48.843 2.77982 48.843C3.06263 48.843 3.39914 48.861 3.51012 48.861C3.68911 48.861 4.09722 48.843 4.26369 48.843C4.60649 48.8188 4.94854 48.8997 5.24458 49.0752C5.35603 49.162 5.44624 49.2734 5.50829 49.4007C5.57034 49.528 5.60259 49.6678 5.60257 49.8096C5.60257 50.2056 5.43789 50.5728 4.89733 51.012C5.37346 51.6132 5.7404 52.092 6.05543 52.4232C6.20938 52.6067 6.41974 52.7334 6.65327 52.7832C6.70237 52.7917 6.75203 52.7965 6.80184 52.7976C6.84658 52.7976 6.86806 52.8156 6.86806 52.8408C6.86806 52.866 6.82869 52.8948 6.76425 52.8948H6.26485C6.06879 52.9133 5.87143 52.8778 5.69386 52.7922C5.46474 52.6698 5.26248 52.4178 4.96356 52.0038C4.75055 51.7086 4.50533 51.345 4.43552 51.264C4.42359 51.2504 4.40859 51.2399 4.39177 51.2333C4.37495 51.2267 4.35681 51.2243 4.33886 51.2262L3.87527 51.2154C3.84842 51.2154 3.83231 51.2262 3.83231 51.2604V51.3342C3.83231 51.8328 3.83231 52.2558 3.85916 52.4826C3.87527 52.6374 3.90749 52.7544 4.06679 52.7778C4.15408 52.7892 4.24192 52.7958 4.32992 52.7976C4.37108 52.7976 4.39256 52.8156 4.39256 52.8408C4.39256 52.866 4.35497 52.8948 4.28696 52.8948C3.9773 52.8948 3.58172 52.8786 3.50296 52.8786C3.4242 52.8786 3.06442 52.8948 2.85142 52.8948C2.78161 52.8948 2.74402 52.8786 2.74402 52.8408C2.74402 52.803 2.7655 52.7976 2.82994 52.7976C2.89431 52.7981 2.95854 52.7915 3.02146 52.7778C3.12886 52.7544 3.15571 52.6374 3.1754 52.4826C3.20225 52.2558 3.20225 51.8328 3.20225 51.3396L3.20046 50.4ZM3.83052 50.8248C3.83052 50.8842 3.84126 50.904 3.87885 50.9202C4.0109 50.9582 4.14782 50.9764 4.28517 50.9742C4.41781 50.9926 4.55251 50.9605 4.66285 50.8842C4.82394 50.7654 4.97788 50.5242 4.97788 50.0778C4.97788 49.3164 4.47669 49.0968 4.16166 49.0968C4.06695 49.093 3.97211 49.0996 3.87885 49.1166C3.84126 49.1292 3.83052 49.1508 3.83052 49.194V50.8248Z" fill="#E50695"/>
<path d="M7.44262 51.4944C7.41577 51.4944 7.40503 51.5034 7.39429 51.5358L7.10611 52.3026C7.06297 52.407 7.03639 52.5175 7.02735 52.6302C7.02735 52.7256 7.07568 52.7958 7.24036 52.7958H7.31911C7.38355 52.7958 7.39966 52.8084 7.39966 52.839C7.39966 52.8696 7.36744 52.893 7.30837 52.893C7.13833 52.893 6.90922 52.8768 6.74454 52.8768C6.68547 52.8768 6.38655 52.893 6.11448 52.893C6.04467 52.893 6.01245 52.8822 6.01245 52.839C6.01245 52.7958 6.03393 52.7958 6.07689 52.7958C6.11985 52.7958 6.2004 52.7958 6.24156 52.7868C6.48858 52.7526 6.58882 52.5708 6.69442 52.3026L8.03509 48.933C8.09774 48.7782 8.13175 48.7188 8.18545 48.7188C8.23915 48.7188 8.26421 48.7674 8.31791 48.8898C8.44678 49.1868 9.30059 51.3738 9.64068 52.191C9.84294 52.6734 9.99867 52.749 10.1096 52.776C10.1841 52.7891 10.2596 52.7958 10.3352 52.7958C10.3781 52.7958 10.4032 52.7958 10.4032 52.839C10.4032 52.8822 10.3549 52.893 10.158 52.893C9.96108 52.893 9.57624 52.893 9.15023 52.8822C9.05357 52.8822 8.98914 52.8822 8.98914 52.839C8.98914 52.7958 9.01062 52.7958 9.06431 52.7904C9.07612 52.7864 9.08691 52.7798 9.09594 52.7712C9.10498 52.7626 9.11204 52.7521 9.11663 52.7404C9.12123 52.7288 9.12325 52.7163 9.12257 52.7038C9.12188 52.6913 9.11849 52.6791 9.11264 52.668L8.68664 51.5304C8.68304 51.5192 8.67578 51.5095 8.66603 51.503C8.65628 51.4965 8.64461 51.4934 8.63294 51.4944H7.44262ZM8.53091 51.2244C8.55776 51.2244 8.56313 51.2082 8.55776 51.192L8.07805 49.86C8.07805 49.8384 8.06552 49.8114 8.0512 49.8114C8.03688 49.8114 8.02435 49.8384 8.01898 49.86L7.52854 51.1794C7.52854 51.201 7.52854 51.2172 7.54823 51.2172L8.53091 51.2244Z" fill="#E50695"/>
<path d="M10.9635 50.4C10.9635 49.5864 10.9635 49.4352 10.9527 49.2624C10.942 49.0896 10.899 48.9942 10.7236 48.9564C10.655 48.9452 10.5855 48.9398 10.516 48.9402C10.4569 48.9402 10.4247 48.9294 10.4247 48.8934C10.4247 48.8574 10.4623 48.843 10.5428 48.843C10.8256 48.843 11.1622 48.861 11.3 48.861C11.4378 48.861 11.7636 48.843 11.973 48.843C12.0464 48.843 12.084 48.8556 12.084 48.8934C12.084 48.9312 12.0518 48.9402 11.9891 48.9402C11.9369 48.9414 11.8848 48.9468 11.8334 48.9564C11.6902 48.9834 11.6544 49.0752 11.6365 49.2624C11.6186 49.4496 11.6347 49.5792 11.6347 50.4V51.3936C11.6347 51.624 11.6508 51.8814 11.6508 52.1496C11.661 52.4714 11.6174 52.7927 11.5219 53.1C11.3444 53.5322 11.0246 53.8899 10.6162 54.1134C10.5291 54.1641 10.4395 54.2104 10.3477 54.252C10.3156 54.2711 10.2794 54.2822 10.2421 54.2844C10.2307 54.2844 10.2198 54.2799 10.2117 54.2718C10.2037 54.2637 10.1992 54.2527 10.1992 54.2412C10.1992 54.216 10.226 54.1926 10.3173 54.1458C10.4075 54.0869 10.4894 54.0161 10.5607 53.9352C10.9653 53.5212 10.9599 52.9848 10.9599 51.9336L10.9635 50.4Z" fill="#E50695"/>
<path d="M13.3978 51.4944C13.3709 51.4944 13.3602 51.5034 13.3494 51.5358L13.0666 52.3026C13.0224 52.4067 12.9952 52.5174 12.9861 52.6302C12.9861 52.7256 13.0344 52.7958 13.1991 52.7958H13.2796C13.3423 52.7958 13.3584 52.8084 13.3584 52.839C13.3584 52.8696 13.328 52.893 13.2689 52.893C13.0988 52.893 12.8679 52.8768 12.7033 52.8768C12.6442 52.8768 12.3453 52.893 12.0732 52.893C12.0034 52.893 11.973 52.8822 11.973 52.839C11.973 52.7958 11.9927 52.7958 12.0356 52.7958C12.0786 52.7958 12.1591 52.7958 12.2021 52.7868C12.4473 52.7526 12.5475 52.5708 12.6549 52.3026L13.9938 48.933C14.0583 48.7782 14.0905 48.7188 14.1424 48.7188C14.1943 48.7188 14.2229 48.7674 14.2766 48.8898C14.4055 49.1868 15.2593 51.3738 15.5994 52.191C15.8035 52.6734 15.9574 52.749 16.0702 52.776C16.144 52.7891 16.2189 52.7958 16.2939 52.7958C16.3369 52.7958 16.3637 52.7958 16.3637 52.839C16.3637 52.8822 16.3154 52.893 16.1185 52.893C15.9216 52.893 15.5368 52.893 15.109 52.8822C15.0123 52.8822 14.9496 52.8822 14.9496 52.839C14.9496 52.7958 14.9693 52.7958 15.023 52.7904C15.035 52.7866 15.046 52.7802 15.0552 52.7716C15.0644 52.7631 15.0717 52.7526 15.0765 52.741C15.0812 52.7293 15.0834 52.7167 15.0829 52.7041C15.0823 52.6915 15.079 52.6792 15.0732 52.668L14.6454 51.5304C14.6421 51.519 14.6349 51.5091 14.625 51.5026C14.6152 51.496 14.6034 51.4931 14.5917 51.4944H13.3978ZM14.4843 51.2244C14.5129 51.2244 14.5183 51.2082 14.5129 51.192L14.0314 49.86C14.0314 49.8384 14.0314 49.8114 14.0046 49.8114C13.9777 49.8114 13.9795 49.8384 13.9741 49.86L13.4819 51.1794C13.4819 51.201 13.4819 51.2172 13.5034 51.2172L14.4843 51.2244Z" fill="#E50695"/>
<path d="M16.5732 52.83C16.4872 52.7904 16.4711 52.7652 16.4711 52.65C16.4711 52.3548 16.4926 52.0326 16.498 51.9462C16.5033 51.8598 16.5195 51.8076 16.5624 51.8076C16.6054 51.8076 16.6143 51.8562 16.6143 51.8994C16.619 51.9923 16.6352 52.0842 16.6627 52.173C16.7082 52.3381 16.8093 52.4821 16.9487 52.5806C17.088 52.6791 17.2571 52.7259 17.427 52.713C17.9067 52.713 18.1429 52.3854 18.1429 52.101C18.1429 51.8166 18.0624 51.5862 17.6203 51.2424L17.3751 51.0498C16.788 50.589 16.5839 50.2128 16.5839 49.7772C16.5839 49.1886 17.0761 48.7638 17.8172 48.7638C18.0589 48.7605 18.3 48.7914 18.5332 48.8556C18.5797 48.8664 18.6065 48.8826 18.6065 48.9204C18.6065 48.9888 18.5851 49.1454 18.5851 49.563C18.5851 49.6818 18.569 49.7232 18.5278 49.7232C18.4866 49.7232 18.4741 49.6926 18.4741 49.6278C18.4642 49.4965 18.4156 49.3712 18.3345 49.2678C18.2661 49.1798 18.1773 49.1101 18.0759 49.0646C17.9745 49.0191 17.8635 48.9992 17.7527 49.0068C17.3589 49.0068 17.1173 49.239 17.1173 49.5594C17.1173 49.806 17.2408 49.995 17.6847 50.3334L17.8333 50.445C18.4741 50.9436 18.7086 51.3036 18.7086 51.813C18.7121 51.9989 18.6678 52.1826 18.58 52.3463C18.4922 52.5099 18.3638 52.648 18.2074 52.7472C17.9515 52.901 17.6569 52.9773 17.3589 52.9668C17.0903 52.9787 16.8222 52.9321 16.5732 52.83V52.83Z" fill="#E50695"/>
<path d="M20.6793 49.14L19.8863 49.1616C19.5749 49.1724 19.4478 49.1976 19.3672 49.3164C19.3278 49.3711 19.2976 49.4319 19.2777 49.4964C19.267 49.5396 19.2509 49.5612 19.2187 49.5612C19.1865 49.5612 19.1703 49.536 19.1703 49.4748C19.1703 49.4136 19.2724 48.9024 19.2831 48.8592C19.2992 48.789 19.3135 48.7566 19.3458 48.7566C19.4199 48.7855 19.4966 48.8072 19.5749 48.8214C19.7306 48.8376 19.9329 48.8484 20.1119 48.8484H22.2258C22.3456 48.8469 22.4651 48.8379 22.5838 48.8214C22.631 48.8097 22.6788 48.8007 22.727 48.7944C22.7646 48.7944 22.7699 48.8268 22.7699 48.9078C22.7699 49.0194 22.7538 49.3902 22.7538 49.5306C22.7538 49.5828 22.7377 49.6152 22.7055 49.6152C22.6733 49.6152 22.6536 49.5882 22.6482 49.509V49.4478C22.6375 49.3092 22.4925 49.158 22.0182 49.149L21.3469 49.1328V51.3324C21.3469 51.8256 21.3469 52.2486 21.372 52.4808C21.3881 52.6302 21.4203 52.7472 21.5796 52.7706C21.6698 52.7827 21.7607 52.7893 21.8517 52.7904C21.9126 52.7904 21.9376 52.8084 21.9376 52.8336C21.9376 52.8588 21.8947 52.8876 21.8374 52.8876C21.4794 52.8876 21.1482 52.8714 20.9979 52.8714C20.8762 52.8714 20.5397 52.8876 20.3249 52.8876C20.2568 52.8876 20.2193 52.8714 20.2193 52.8336C20.2193 52.7958 20.2407 52.7904 20.3052 52.7904C20.3695 52.7907 20.4338 52.7841 20.4967 52.7706C20.6041 52.7472 20.6363 52.6302 20.6506 52.4754C20.6775 52.2486 20.6775 51.8256 20.6775 51.3324L20.6793 49.14Z" fill="#E50695"/>
<path d="M26.4913 50.544C26.4959 50.5438 26.5004 50.5426 26.5046 50.5406C26.5088 50.5385 26.5125 50.5357 26.5155 50.5321C26.5185 50.5286 26.5208 50.5244 26.5221 50.52C26.5235 50.5155 26.524 50.5109 26.5235 50.5062V50.4C26.5235 49.5864 26.5235 49.4352 26.5127 49.2624C26.502 49.0896 26.459 48.9942 26.2818 48.9564C26.2138 48.9452 26.1449 48.9398 26.076 48.9402C26.0151 48.9402 25.9829 48.9294 25.9829 48.8934C25.9829 48.8574 26.0205 48.843 26.0957 48.843C26.3839 48.843 26.7204 48.861 26.8636 48.861C27.0068 48.861 27.3272 48.843 27.5366 48.843C27.6118 48.843 27.6494 48.8556 27.6494 48.8934C27.6494 48.9312 27.6171 48.9402 27.5527 48.9402C27.5005 48.9423 27.4485 48.9477 27.397 48.9564C27.2538 48.9834 27.218 49.0752 27.2001 49.2624C27.1822 49.4496 27.1893 49.5864 27.1893 50.4V51.345C27.1893 51.8382 27.1893 52.2612 27.2162 52.4934C27.2323 52.6428 27.2645 52.7598 27.4238 52.7832C27.514 52.7953 27.6049 52.8019 27.6959 52.803C27.755 52.803 27.7818 52.821 27.7818 52.8462C27.7818 52.8714 27.7389 52.9002 27.6744 52.9002C27.3272 52.9002 26.9925 52.884 26.8439 52.884C26.6953 52.884 26.3839 52.9002 26.1762 52.9002C26.1011 52.9002 26.0635 52.884 26.0635 52.8462C26.0635 52.8084 26.0849 52.803 26.1494 52.803C26.2138 52.8036 26.278 52.797 26.3409 52.7832C26.4483 52.7598 26.4752 52.6428 26.4966 52.488C26.5235 52.2612 26.5235 51.8382 26.5235 51.345V50.8734C26.5237 50.8691 26.5231 50.8648 26.5216 50.8607C26.52 50.8567 26.5177 50.853 26.5146 50.8499C26.5116 50.8469 26.5079 50.8445 26.5039 50.8429C26.4999 50.8414 26.4956 50.8408 26.4913 50.841H24.4579C24.4535 50.8404 24.4491 50.8409 24.4449 50.8423C24.4407 50.8437 24.4369 50.8461 24.4338 50.8492C24.4307 50.8523 24.4283 50.8561 24.4269 50.8603C24.4255 50.8646 24.4251 50.869 24.4257 50.8734V51.345C24.4257 51.8382 24.4257 52.2612 24.4525 52.4934C24.4686 52.6428 24.5008 52.7598 24.6601 52.7832C24.7504 52.7954 24.8412 52.802 24.9322 52.803C24.9913 52.803 25.0181 52.821 25.0181 52.8462C25.0181 52.8714 24.9752 52.9002 24.9107 52.9002C24.5653 52.9002 24.2288 52.884 24.0802 52.884C23.9316 52.884 23.6202 52.9002 23.4072 52.9002C23.3374 52.9002 23.2998 52.884 23.2998 52.8462C23.2998 52.8084 23.3213 52.803 23.3857 52.803C23.4507 52.8034 23.5155 52.7968 23.579 52.7832C23.6846 52.7598 23.7115 52.6428 23.733 52.488C23.7598 52.2612 23.7598 51.8382 23.7598 51.345V50.4C23.7598 49.5864 23.7598 49.4352 23.7491 49.2624C23.7383 49.0896 23.6954 48.9942 23.5182 48.9564C23.4495 48.9452 23.3801 48.9398 23.3105 48.9402C23.2515 48.9402 23.2192 48.9294 23.2192 48.8934C23.2192 48.8574 23.2568 48.843 23.332 48.843C23.6202 48.843 23.9567 48.861 24.0999 48.861C24.2431 48.861 24.5653 48.843 24.7729 48.843C24.8481 48.843 24.8857 48.8556 24.8857 48.8934C24.8857 48.9312 24.8517 48.9402 24.789 48.9402C24.7374 48.9422 24.686 48.9476 24.6351 48.9564C24.4901 48.9834 24.4561 49.0752 24.4364 49.2624C24.4167 49.4496 24.4257 49.5864 24.4257 50.4V50.5134C24.4257 50.5404 24.4418 50.5512 24.4579 50.5512L26.4913 50.544Z" fill="#E50695"/>
<path d="M29.1583 51.4944C29.1314 51.4944 29.1207 51.5034 29.11 51.5358L28.8182 52.3026C28.774 52.4067 28.7468 52.5174 28.7377 52.6302C28.7377 52.7256 28.786 52.7958 28.9507 52.7958H29.0312C29.0957 52.7958 29.11 52.8084 29.11 52.839C29.11 52.8696 29.0795 52.893 29.0205 52.893C28.8415 52.893 28.6213 52.8768 28.4548 52.8768C28.3958 52.8768 28.0969 52.893 27.8248 52.893C27.7568 52.893 27.7245 52.8822 27.7245 52.839C27.7245 52.7958 27.746 52.7958 27.789 52.7958C27.8319 52.7958 27.9107 52.7958 27.9537 52.7868C28.2007 52.7526 28.3009 52.5708 28.4065 52.3026L29.7454 48.933C29.8116 48.7782 29.8421 48.7188 29.8958 48.7188C29.9495 48.7188 29.9763 48.7674 30.03 48.8898C30.1571 49.1868 31.0127 51.3738 31.3528 52.191C31.5568 52.6734 31.7108 52.749 31.8235 52.776C31.8974 52.7891 31.9723 52.7958 32.0473 52.7958C32.0884 52.7958 32.1153 52.7958 32.1153 52.839C32.1153 52.8822 32.0688 52.893 31.8719 52.893C31.675 52.893 31.2883 52.893 30.8605 52.8822C30.7657 52.8822 30.703 52.8822 30.703 52.839C30.703 52.7958 30.7245 52.7958 30.7782 52.7904C30.7898 52.7862 30.8005 52.7795 30.8093 52.7708C30.8181 52.7621 30.825 52.7516 30.8294 52.74C30.8338 52.7283 30.8357 52.7159 30.8349 52.7035C30.8341 52.6911 30.8306 52.679 30.8247 52.668L30.3969 51.5304C30.394 51.5192 30.3872 51.5093 30.3776 51.5027C30.3681 51.4961 30.3565 51.4932 30.345 51.4944H29.1583ZM30.2466 51.2244C30.2734 51.2244 30.2788 51.2082 30.2734 51.192L29.7919 49.86C29.7919 49.8384 29.783 49.8114 29.7669 49.8114C29.7508 49.8114 29.74 49.8384 29.7347 49.86L29.2442 51.1794C29.2442 51.201 29.2442 51.2172 29.2639 51.2172L30.2466 51.2244Z" fill="#E50695"/>
<path d="M32.9781 52.164C32.9888 52.5834 33.0586 52.722 33.1571 52.758C33.2468 52.786 33.3406 52.7988 33.4345 52.7958C33.4936 52.7958 33.5258 52.8084 33.5258 52.839C33.5258 52.8696 33.4775 52.893 33.4023 52.893C33.0568 52.893 32.8438 52.8768 32.7418 52.8768C32.6935 52.8768 32.4429 52.893 32.1636 52.893C32.0956 52.893 32.0491 52.893 32.0491 52.839C32.0491 52.785 32.0795 52.7958 32.1332 52.7958C32.214 52.7973 32.2946 52.7882 32.3731 52.7688C32.5127 52.7256 32.5341 52.5708 32.5395 52.1046L32.5861 48.9276C32.5861 48.8214 32.6022 48.7476 32.6559 48.7476C32.7096 48.7476 32.7633 48.8178 32.8528 48.915C32.919 48.9834 33.728 49.8582 34.5067 50.6376C34.8647 50.9976 35.5914 51.7752 35.6827 51.8598H35.7077L35.6558 49.4496C35.6558 49.1238 35.6003 49.0212 35.4768 48.969C35.3853 48.9411 35.2895 48.9296 35.194 48.9348C35.1296 48.9348 35.1081 48.9204 35.1081 48.888C35.1081 48.8556 35.1672 48.8376 35.2477 48.8376C35.5252 48.8376 35.7847 48.8556 35.8939 48.8556C35.9512 48.8556 36.1552 48.8376 36.4165 48.8376C36.4846 48.8376 36.5401 48.8376 36.5401 48.888C36.5401 48.9384 36.506 48.9348 36.4434 48.9348C36.3892 48.9327 36.335 48.9381 36.2823 48.951C36.1337 48.9942 36.0908 49.1076 36.0854 49.4082L36.0263 52.7922C36.0263 52.911 36.0049 52.9596 35.9583 52.9596C35.9118 52.9596 35.8348 52.902 35.7793 52.8408C35.4446 52.5204 34.7608 51.8166 34.2042 51.264C33.6475 50.7114 33.03 50.0148 32.9351 49.9122H32.919L32.9781 52.164Z" fill="#E50695"/>
<path d="M0.991632 58.32C0.991632 56.8368 0.991632 56.565 0.971942 56.2518C0.952253 55.9386 0.873495 55.7622 0.549514 55.6956C0.423028 55.6738 0.294767 55.6642 0.166465 55.6668C0.0590683 55.6668 0 55.647 0 55.5768C0 55.5066 0.069808 55.4904 0.216584 55.4904C0.735669 55.4904 1.35499 55.5192 1.56084 55.5192C1.89377 55.5192 2.63481 55.4904 2.94447 55.4904C3.56021 55.4904 4.2207 55.548 4.74874 55.9098C4.95347 56.0656 5.11995 56.2665 5.23539 56.4971C5.35082 56.7277 5.41213 56.9818 5.4146 57.24C5.4146 57.96 5.1121 58.626 4.12046 59.4252C4.99396 60.5178 5.67056 61.3872 6.2505 61.992C6.80002 62.5572 7.20097 62.6256 7.34774 62.6562C7.43872 62.6732 7.53089 62.6828 7.62339 62.685C7.70215 62.685 7.74153 62.7138 7.74153 62.7624C7.74153 62.8398 7.67172 62.8596 7.56254 62.8596H6.62281C6.0733 62.8596 5.82808 62.811 5.5739 62.6796C5.15147 62.4546 4.77737 61.9974 4.22965 61.2396C3.83765 60.6996 3.38479 60.0372 3.25771 59.8914C3.23543 59.8665 3.20757 59.8473 3.17644 59.8354C3.14531 59.8235 3.11181 59.8193 3.07871 59.823L2.22491 59.8032C2.21415 59.8013 2.20309 59.802 2.19267 59.8053C2.18225 59.8086 2.17277 59.8144 2.16505 59.8222C2.15732 59.83 2.15157 59.8395 2.14828 59.85C2.14499 59.8604 2.14426 59.8716 2.14615 59.8824V60.0192C2.14615 60.9192 2.14615 61.6968 2.19627 62.1072C2.22491 62.3898 2.28398 62.604 2.57753 62.6472C2.73721 62.669 2.89794 62.6822 3.05902 62.6868C3.13778 62.6868 3.17716 62.7156 3.17716 62.7642C3.17716 62.8128 3.10914 62.8614 2.98027 62.8614C2.41106 62.8614 1.68613 62.8326 1.54831 62.8326C1.36931 62.8326 0.742829 62.8614 0.35083 62.8614C0.223744 62.8614 0.153936 62.8326 0.153936 62.7642C0.153936 62.6958 0.193315 62.6868 0.311451 62.6868C0.431874 62.687 0.551946 62.6737 0.669441 62.6472C0.864546 62.6076 0.914664 62.3934 0.952253 62.1072C1.00237 61.6968 1.00237 60.9264 1.00237 60.0282L0.991632 58.32ZM2.14794 59.0886C2.14794 59.1948 2.16942 59.2344 2.23744 59.2686C2.47967 59.337 2.73048 59.3698 2.98206 59.3658C3.37584 59.3658 3.50114 59.328 3.68014 59.2002C3.97369 58.986 4.25829 58.536 4.25829 57.7368C4.25829 56.3508 3.33647 55.9494 2.75652 55.9494C2.58254 55.9418 2.40828 55.9551 2.23744 55.989C2.16942 56.0088 2.14794 56.0484 2.14794 56.1258V59.0886Z" fill="#E50695"/>
<path d="M7.27972 59.175C7.27972 57.5064 8.3877 55.35 11.3322 55.35C13.7755 55.35 15.2969 56.7648 15.2969 58.9986C15.2969 61.2324 13.7271 63 11.2337 63C8.41276 63 7.27972 60.9012 7.27972 59.175ZM13.9222 59.355C13.9222 57.1698 12.6567 55.8126 11.0476 55.8126C9.9199 55.8126 8.63472 56.4372 8.63472 58.8726C8.63472 60.9012 9.76238 62.5122 11.6454 62.5122C12.3328 62.5122 13.9222 62.181 13.9222 59.3604V59.355Z" fill="#E50695"/>
<path d="M18.5421 60.3378C18.5565 59.9827 18.4794 59.6299 18.3183 59.3136C18.2485 59.1552 16.9329 57.0096 16.591 56.502C16.4177 56.2168 16.1865 55.9715 15.9127 55.782C15.7862 55.7104 15.6457 55.6674 15.501 55.656C15.4222 55.656 15.3542 55.6362 15.3542 55.566C15.3542 55.4958 15.4222 55.4796 15.5332 55.4796C15.7122 55.4796 16.4461 55.5084 16.77 55.5084C16.9759 55.5084 17.3768 55.4796 17.8189 55.4796C17.9174 55.4796 17.9657 55.5084 17.9657 55.566C17.9657 55.6236 17.8977 55.6362 17.7509 55.674C17.7109 55.6835 17.6753 55.7066 17.6502 55.7394C17.6251 55.7722 17.612 55.8126 17.6131 55.854C17.6299 55.9713 17.6701 56.0839 17.7312 56.1852C17.8673 56.4786 19.242 58.8312 19.3995 59.103C19.4979 58.869 20.733 56.7234 20.8708 56.4192C20.9515 56.2622 20.9985 56.0899 21.0086 55.9134C21.0118 55.8539 20.9922 55.7955 20.954 55.75C20.9157 55.7045 20.8616 55.6754 20.8028 55.6686C20.7133 55.6488 20.6238 55.629 20.6238 55.5696C20.6238 55.5102 20.6721 55.4832 20.7903 55.4832C21.1142 55.4832 21.4275 55.512 21.7121 55.512C21.9287 55.512 22.5748 55.4832 22.7628 55.4832C22.8702 55.4832 22.9418 55.503 22.9418 55.5606C22.9418 55.6182 22.863 55.6596 22.7628 55.6596C22.6119 55.667 22.4643 55.7062 22.3296 55.7748C22.1144 55.8878 21.93 56.0522 21.7926 56.2536C21.1091 57.2509 20.4834 58.287 19.9186 59.3568C19.8004 59.6682 19.7504 60.0016 19.7718 60.3342V61.1316C19.7718 61.29 19.7718 61.6986 19.8004 62.109C19.8219 62.3916 19.9078 62.6058 20.2032 62.649C20.3657 62.672 20.5295 62.6852 20.6936 62.6886C20.8028 62.6886 20.8511 62.7174 20.8511 62.766C20.8511 62.8146 20.7724 62.8632 20.6453 62.8632C20.0277 62.8632 19.4102 62.8344 19.1435 62.8344C18.8768 62.8344 18.2808 62.8632 17.9174 62.8632C17.7796 62.8632 17.7008 62.8434 17.7008 62.766C17.7008 62.7174 17.7509 62.6886 17.8583 62.6886C17.974 62.6882 18.0892 62.6749 18.202 62.649C18.3989 62.6094 18.4866 62.3952 18.5063 62.109C18.5349 61.6986 18.5349 61.29 18.5349 61.1316L18.5421 60.3378Z" fill="#E50695"/>
<path d="M24.2144 60.318C24.1661 60.318 24.1464 60.3378 24.1285 60.3936L23.5915 61.7904C23.5103 61.9795 23.4607 62.1808 23.4447 62.3862C23.4447 62.5662 23.5324 62.6886 23.8385 62.6886H23.9853C24.1034 62.6886 24.1339 62.7066 24.1339 62.766C24.1339 62.8254 24.0748 62.8632 23.9656 62.8632C23.6524 62.8632 23.2299 62.8344 22.9257 62.8344C22.8183 62.8344 22.2795 62.8632 21.7676 62.8632C21.6423 62.8632 21.5886 62.8434 21.5886 62.766C21.5886 62.6886 21.6279 62.6886 21.7067 62.6886C21.7855 62.6886 21.9322 62.6778 22.0128 62.6688C22.4638 62.6094 22.6482 62.2782 22.8451 61.7904L25.3081 55.6704C25.4262 55.386 25.4871 55.2798 25.5837 55.2798C25.6804 55.2798 25.7305 55.3662 25.829 55.5912C26.0652 56.1312 27.6332 60.1092 28.2615 61.5924C28.6338 62.4708 28.9184 62.6076 29.1243 62.6562C29.26 62.6822 29.3978 62.6955 29.5359 62.6958C29.6165 62.6958 29.663 62.7048 29.663 62.7732C29.663 62.8416 29.5753 62.8704 29.212 62.8704C28.8486 62.8704 28.138 62.8704 27.3594 62.8506C27.1804 62.8416 27.064 62.8416 27.064 62.7732C27.064 62.7048 27.1052 62.6958 27.2018 62.685C27.2235 62.6775 27.2432 62.6655 27.2598 62.6496C27.2763 62.6337 27.2892 62.6143 27.2975 62.5929C27.3059 62.5715 27.3095 62.5485 27.3081 62.5256C27.3067 62.5026 27.3004 62.4802 27.2896 62.46L26.5056 60.3936C26.4995 60.3725 26.4863 60.3543 26.4684 60.3418C26.4505 60.3294 26.4288 60.3235 26.4071 60.3252L24.2144 60.318ZM26.2174 59.8284C26.2657 59.8284 26.2764 59.7996 26.2657 59.7708L25.3833 57.3588C25.3725 57.321 25.3636 57.2724 25.3331 57.2724C25.3027 57.2724 25.2848 57.321 25.2741 57.3588L24.3791 59.76C24.3684 59.7996 24.3791 59.8284 24.4167 59.8284H26.2174Z" fill="#E50695"/>
<path d="M31.9166 60.0336C31.9166 61.2828 31.9166 61.956 32.1225 62.1306C32.2889 62.2782 32.5449 62.3448 33.311 62.3448C33.8301 62.3448 34.206 62.3358 34.4583 62.073C34.5934 61.9043 34.6812 61.7023 34.7125 61.488C34.7233 61.3998 34.7412 61.3422 34.8217 61.3422C34.9022 61.3422 34.9005 61.3908 34.9005 61.506C34.8786 61.8836 34.829 62.259 34.7519 62.6292C34.6928 62.8434 34.6445 62.892 34.1344 62.892C32.7221 62.892 32.0741 62.8344 31.2794 62.8344C31.0539 62.8344 30.4363 62.8632 30.0443 62.8632C29.9155 62.8632 29.8474 62.8344 29.8474 62.766C29.8474 62.6976 29.8868 62.6886 30.0032 62.6886C30.1236 62.6892 30.2437 62.6759 30.3611 62.649C30.558 62.6094 30.6082 62.3952 30.6458 62.109C30.6959 61.6986 30.6959 60.9282 30.6959 60.03V58.32C30.6959 56.8368 30.6959 56.565 30.6762 56.2518C30.6565 55.9386 30.5777 55.7622 30.2555 55.6956C30.1483 55.6739 30.0391 55.6643 29.9298 55.6668C29.8224 55.6668 29.7633 55.647 29.7633 55.5768C29.7633 55.5066 29.8331 55.4904 29.9799 55.4904C30.4417 55.4904 31.0539 55.5192 31.3241 55.5192C31.5586 55.5192 32.2764 55.4904 32.6559 55.4904C32.7955 55.4904 32.8635 55.5102 32.8635 55.5768C32.8635 55.6434 32.8044 55.6668 32.6845 55.6668C32.5563 55.6669 32.4283 55.6765 32.3015 55.6956C32.0348 55.7442 31.9578 55.9098 31.9435 56.2518C31.9238 56.565 31.9238 56.8368 31.9238 58.32L31.9166 60.0336Z" fill="#E50695"/>
<path d="M36.0872 62.7462C35.9279 62.6778 35.8992 62.6292 35.8992 62.415C35.8992 61.875 35.9404 61.2936 35.9493 61.1352C35.9583 60.9768 35.9869 60.8832 36.0675 60.8832C36.148 60.8832 36.1641 60.9714 36.1641 61.0488C36.1731 61.2174 36.2026 61.3842 36.2519 61.5456C36.4684 62.2656 37.0484 62.532 37.6552 62.532C38.5394 62.532 38.9708 61.938 38.9708 61.4196C38.9708 60.9426 38.824 60.4818 38.0096 59.8572L37.5585 59.4972C36.4845 58.6584 36.1051 57.9762 36.1051 57.1842C36.1051 56.1042 37.0001 55.341 38.3729 55.341C38.8128 55.3356 39.2513 55.3913 39.676 55.5066C39.7655 55.5264 39.8138 55.5552 39.8138 55.6236C39.8138 55.7496 39.7745 56.034 39.7745 56.7936C39.7745 57.0096 39.7458 57.0888 39.6653 57.0888C39.5847 57.0888 39.5668 57.0294 39.5668 56.9088C39.5496 56.6732 39.4616 56.4485 39.3145 56.2644C39.188 56.1024 39.024 55.974 38.8367 55.8906C38.6495 55.8071 38.4448 55.7711 38.2405 55.7856C37.5245 55.7856 37.0734 56.205 37.0734 56.79C37.0734 57.24 37.299 57.582 38.1134 58.1976L38.3873 58.401C39.5633 59.31 39.9982 59.9634 39.9982 60.8886C40.0041 61.2279 39.9222 61.5628 39.7607 61.8607C39.5991 62.1586 39.3633 62.4091 39.0764 62.5878C38.6054 62.8681 38.0643 63.0067 37.5173 62.9874C37.0289 63.0113 36.5411 62.9291 36.0872 62.7462V62.7462Z" fill="#E50695"/>
<path d="M28.419 18.4428C26.5593 17.1378 23.3177 16.6986 19.8094 16.6986C16.3602 16.6986 13.2832 17.361 11.2713 18.396C11.2713 18.396 10.7576 18.7452 11.0923 19.2114C11.1532 19.2799 11.2319 19.3298 11.3195 19.3556C11.4072 19.3814 11.5002 19.3819 11.5882 19.3572C14.2082 18.3301 16.9973 17.8087 19.8094 17.82C23.0098 17.82 25.8952 18.3906 27.8928 19.2996C28.0119 19.346 28.1427 19.3522 28.2657 19.3175C28.3886 19.2828 28.4971 19.2089 28.5748 19.107C28.5748 19.107 28.8558 18.7488 28.419 18.4428Z" fill="#E50695"/>
<path d="M29.2066 15.4548C28.8663 15.7844 28.4371 16.006 27.9724 16.092C27.5077 16.178 27.0281 16.1246 26.5934 15.9385C26.1587 15.7523 25.7881 15.4417 25.5277 15.0452C25.2673 14.6487 25.1287 14.1839 25.1291 13.7088C25.1289 13.564 25.1414 13.4194 25.1667 13.2768L24.6029 13.0392C24.3703 13.4981 23.9983 13.8706 23.5409 14.1024C23.0835 14.3343 22.5645 14.4136 22.0593 14.3287C21.5541 14.2438 21.0889 13.9992 20.7313 13.6304C20.3737 13.2616 20.1423 12.7878 20.0707 12.2778L19.5982 12.2904C19.5205 12.8257 19.2669 13.3195 18.8778 13.6931C18.4887 14.0667 17.9865 14.2985 17.4511 14.3518C16.9158 14.405 16.3781 14.2765 15.9238 13.9867C15.4695 13.697 15.1247 13.2627 14.9443 12.753L14.3894 12.8394C14.6133 13.37 14.6417 13.9635 14.4696 14.5133C14.2975 15.0631 13.9361 15.5332 13.4503 15.8391C12.9645 16.145 12.3862 16.2668 11.8192 16.1825C11.2522 16.0982 10.7336 15.8134 10.3567 15.3792C10.2027 15.5718 10.1365 15.7392 10.217 15.8454C10.8659 16.52 11.2976 17.3756 11.4557 18.3006C13.4658 17.3214 16.4675 16.6986 19.8022 16.6986C23.1369 16.6986 26.246 17.0946 28.1326 18.261H28.1738C28.3913 17.2898 28.8932 16.4064 29.6147 15.7248L29.2066 15.4548Z" fill="#E50695"/>
<path d="M15.2146 12.8484C15.2146 12.9552 15.1831 13.0596 15.1241 13.1484C15.0651 13.2372 14.9812 13.3064 14.8831 13.3473C14.785 13.3882 14.677 13.3989 14.5728 13.378C14.4687 13.3572 14.373 13.3058 14.2979 13.2302C14.2228 13.1547 14.1717 13.0585 14.1509 12.9538C14.1302 12.849 14.1409 12.7404 14.1815 12.6418C14.2221 12.5431 14.291 12.4588 14.3793 12.3994C14.4676 12.3401 14.5714 12.3084 14.6776 12.3084C14.82 12.3084 14.9566 12.3653 15.0573 12.4666C15.158 12.5678 15.2146 12.7052 15.2146 12.8484Z" fill="#E50695"/>
<path d="M20.2801 12.105C20.2801 12.2118 20.2487 12.3162 20.1896 12.405C20.1306 12.4938 20.0468 12.563 19.9487 12.6039C19.8505 12.6448 19.7426 12.6555 19.6384 12.6346C19.5342 12.6138 19.4386 12.5624 19.3635 12.4868C19.2884 12.4113 19.2372 12.3151 19.2165 12.2104C19.1958 12.1056 19.2064 11.997 19.2471 11.8984C19.2877 11.7997 19.3565 11.7153 19.4448 11.656C19.5331 11.5967 19.637 11.565 19.7432 11.565C19.8856 11.565 20.0222 11.6219 20.1229 11.7232C20.2236 11.8244 20.2801 11.9618 20.2801 12.105Z" fill="#E50695"/>
<path d="M25.4603 12.9888C25.4603 13.0956 25.4288 13.2 25.3698 13.2888C25.3108 13.3776 25.2269 13.4468 25.1288 13.4877C25.0307 13.5286 24.9227 13.5393 24.8185 13.5184C24.7144 13.4976 24.6187 13.4461 24.5436 13.3706C24.4685 13.2951 24.4173 13.1989 24.3966 13.0941C24.3759 12.9894 24.3865 12.8808 24.4272 12.7821C24.4678 12.6835 24.5366 12.5991 24.6249 12.5398C24.7133 12.4805 24.8171 12.4488 24.9233 12.4488C25.0657 12.4488 25.2023 12.5057 25.303 12.607C25.4037 12.7082 25.4603 12.8456 25.4603 12.9888Z" fill="#E50695"/>
<path d="M30.0819 15.3234C30.0819 15.4302 30.0504 15.5346 29.9914 15.6234C29.9324 15.7122 29.8485 15.7814 29.7504 15.8223C29.6523 15.8632 29.5443 15.8738 29.4402 15.853C29.336 15.8322 29.2403 15.7807 29.1652 15.7052C29.0901 15.6297 29.039 15.5335 29.0183 15.4287C28.9975 15.324 29.0082 15.2154 29.0488 15.1167C29.0895 15.0181 29.1583 14.9337 29.2466 14.8744C29.3349 14.8151 29.4387 14.7834 29.5449 14.7834C29.6873 14.7834 29.8239 14.8403 29.9246 14.9415C30.0253 15.0428 30.0819 15.1802 30.0819 15.3234Z" fill="#E50695"/>
<path d="M10.5178 15.3234C10.5178 15.4302 10.4863 15.5346 10.4273 15.6234C10.3683 15.7122 10.2844 15.7814 10.1863 15.8223C10.0881 15.8632 9.98018 15.8738 9.87601 15.853C9.77185 15.8322 9.67616 15.7807 9.60107 15.7052C9.52597 15.6297 9.47482 15.5335 9.4541 15.4287C9.43339 15.324 9.44402 15.2154 9.48466 15.1167C9.52531 15.0181 9.59413 14.9337 9.68244 14.8744C9.77075 14.8151 9.87457 14.7834 9.98077 14.7834C10.1232 14.7834 10.2598 14.8403 10.3605 14.9415C10.4612 15.0428 10.5178 15.1802 10.5178 15.3234Z" fill="#E50695"/>
<path d="M18.1393 5.94901H21.9412C22.3797 5.94901 22.3636 5.66101 22.3636 5.66101C22.3814 5.48701 22.4648 5.32648 22.5966 5.2124C22.7285 5.09833 22.8988 5.03938 23.0725 5.04768C23.2462 5.05597 23.4102 5.13089 23.5307 5.25701C23.6512 5.38314 23.7191 5.5509 23.7204 5.72581C23.7205 5.78172 23.7133 5.8374 23.6989 5.89141L23.9227 5.94361C23.9583 5.77263 24.0578 5.62193 24.2007 5.52256C24.3436 5.42318 24.5189 5.38271 24.6906 5.40948C24.8622 5.43625 25.0172 5.52823 25.1234 5.66645C25.2296 5.80467 25.2791 5.97861 25.2616 6.15241C25.2567 6.21855 25.2416 6.28353 25.2168 6.34501L25.3689 6.40261C25.4225 6.23904 25.5353 6.10179 25.6851 6.01825C25.8348 5.93471 26.0103 5.91103 26.1767 5.95194C26.343 5.99284 26.4878 6.09532 26.5823 6.23892C26.6768 6.38252 26.714 6.55667 26.6864 6.72661C26.672 6.81116 26.6423 6.89232 26.5986 6.96601L26.7257 7.03261C26.803 6.88391 26.9318 6.76893 27.0878 6.70954C27.2439 6.65015 27.4161 6.65048 27.5719 6.71048C27.7277 6.77048 27.8561 6.88595 27.9328 7.03495C28.0094 7.18395 28.029 7.35608 27.9876 7.51861C27.9658 7.60732 27.9262 7.69062 27.8713 7.76341L28.0002 7.86061C28.0563 7.78475 28.1274 7.72141 28.209 7.67458C28.2907 7.62774 28.3811 7.59844 28.4746 7.5885C28.568 7.57857 28.6625 7.58823 28.7521 7.61687C28.8417 7.64551 28.9244 7.69251 28.995 7.75491C29.0656 7.8173 29.1226 7.89374 29.1624 7.97939C29.2021 8.06504 29.2238 8.15805 29.226 8.25254C29.2282 8.34704 29.211 8.44098 29.1753 8.52842C29.1396 8.61587 29.0863 8.69492 29.0187 8.76061C29.0598 8.80021 29.0974 8.83981 29.1368 8.88121C29.2514 8.77313 29.3996 8.70827 29.5563 8.69762C29.713 8.68697 29.8686 8.73119 29.9966 8.82279C30.1245 8.91438 30.217 9.04769 30.2584 9.20008C30.2997 9.35248 30.2873 9.51456 30.2233 9.65881C30.1715 9.77077 30.092 9.86746 29.9924 9.93961C30.0246 9.98641 30.0568 10.0332 30.0873 10.0818C30.2159 10.0056 30.3659 9.97413 30.5141 9.99214C30.6623 10.0102 30.8004 10.0767 30.9073 10.1815C31.0142 10.2863 31.0838 10.4236 31.1054 10.5721C31.127 10.7206 31.0995 10.8722 31.027 11.0034C30.9585 11.1262 30.8541 11.2248 30.7281 11.286C30.7477 11.331 30.7656 11.3778 30.7835 11.421C30.8728 11.3715 30.972 11.3429 31.0737 11.3371C31.1754 11.3314 31.2772 11.3487 31.3714 11.3878C31.4656 11.4269 31.5498 11.4867 31.6179 11.563C31.686 11.6392 31.7362 11.7299 31.7648 11.8282C31.7933 11.9266 31.7996 12.0302 31.783 12.1313C31.7664 12.2324 31.7275 12.3285 31.669 12.4124C31.6106 12.4963 31.5341 12.566 31.4453 12.6162C31.3565 12.6665 31.2575 12.696 31.1559 12.7026C31.1666 12.7638 31.1773 12.8268 31.1899 12.8826C31.3339 12.8908 31.4715 12.9458 31.5819 13.0392C31.6809 13.1222 31.7545 13.2318 31.7938 13.3553C31.8331 13.4788 31.8367 13.611 31.804 13.7364C31.7713 13.8618 31.7038 13.9753 31.6093 14.0635C31.5148 14.1517 31.3972 14.211 31.2704 14.2344H28.8182" fill="#E50695"/>
<path d="M21.4186 5.94901H17.6185C17.1782 5.94901 17.1961 5.66101 17.1961 5.66101C17.1783 5.48701 17.0949 5.32648 16.9631 5.2124C16.8312 5.09833 16.6609 5.03938 16.4872 5.04768C16.3134 5.05597 16.1495 5.13089 16.029 5.25701C15.9085 5.38314 15.8406 5.5509 15.8393 5.72581C15.8395 5.78159 15.8461 5.83716 15.859 5.89141L15.637 5.94001C15.5983 5.77178 15.4977 5.62451 15.3555 5.52775C15.2133 5.43099 15.04 5.3919 14.8703 5.41833C14.7006 5.44475 14.5471 5.53474 14.4407 5.67023C14.3342 5.80572 14.2827 5.97668 14.2964 6.14881C14.303 6.21467 14.318 6.27941 14.3411 6.34141L14.189 6.39901C14.1354 6.23544 14.0226 6.09819 13.8728 6.01465C13.7231 5.93111 13.5476 5.90743 13.3813 5.94834C13.2149 5.98924 13.0701 6.09172 12.9756 6.23532C12.8811 6.37892 12.844 6.55307 12.8716 6.72301C12.8867 6.80733 12.9164 6.88835 12.9593 6.96241L12.8322 7.02901C12.7507 6.88867 12.6222 6.78208 12.4698 6.72833C12.3173 6.67457 12.1507 6.67716 12 6.73564C11.8492 6.79412 11.7241 6.90466 11.647 7.04746C11.5699 7.19027 11.5459 7.35601 11.5792 7.51501C11.6017 7.60382 11.6419 7.68712 11.6973 7.75981L11.5667 7.85701C11.4773 7.71312 11.3379 7.60776 11.1757 7.56141C11.0134 7.51505 10.8397 7.531 10.6885 7.60615C10.5372 7.6813 10.4192 7.8103 10.3572 7.96809C10.2952 8.12588 10.2937 8.3012 10.3531 8.46001C10.3874 8.56927 10.449 8.66783 10.5321 8.74621L10.414 8.86681C10.346 8.80196 10.2654 8.75193 10.1773 8.71986C10.0892 8.6878 9.99544 8.67439 9.90193 8.68047C9.80842 8.68655 9.71717 8.71199 9.63391 8.7552C9.55064 8.79842 9.47715 8.85846 9.41804 8.93158C9.35893 9.0047 9.31549 9.0893 9.29043 9.1801C9.26537 9.27089 9.25923 9.36592 9.2724 9.45921C9.28558 9.5525 9.31778 9.64205 9.36699 9.72224C9.41619 9.80243 9.48135 9.87153 9.55836 9.92521L9.46349 10.0674C9.38448 10.0189 9.29645 9.98707 9.20478 9.97395C9.11312 9.96082 9.01976 9.96666 8.93042 9.99109C8.84108 10.0155 8.75764 10.058 8.68521 10.116C8.61278 10.174 8.55289 10.2463 8.50921 10.3284C8.46552 10.4105 8.43897 10.5007 8.43116 10.5935C8.42335 10.6862 8.43447 10.7796 8.46382 10.8679C8.49316 10.9562 8.54013 11.0376 8.60184 11.107C8.66355 11.1764 8.7387 11.2324 8.82269 11.2716C8.803 11.3166 8.7851 11.3634 8.7672 11.4066C8.67795 11.3571 8.5788 11.3285 8.47705 11.3227C8.37531 11.317 8.27358 11.3343 8.17938 11.3734C8.08518 11.4125 8.00093 11.4723 7.93283 11.5486C7.86474 11.6248 7.81455 11.7155 7.78597 11.8138C7.7574 11.9122 7.75117 12.0158 7.76774 12.1169C7.78431 12.218 7.82326 12.3141 7.88172 12.398C7.94018 12.4819 8.01664 12.5516 8.10546 12.6018C8.19429 12.6521 8.2932 12.6816 8.39489 12.6882L8.36267 12.8682C8.21799 12.8761 8.07977 12.931 7.96888 13.0248C7.86978 13.1079 7.7963 13.2177 7.75706 13.3413C7.71781 13.4649 7.71443 13.5972 7.74731 13.7226C7.7802 13.8481 7.84798 13.9615 7.9427 14.0496C8.03743 14.1377 8.15517 14.1968 8.28212 14.22H10.7397" fill="#E50695"/>
<path d="M20.1477 2.0412C20.1472 2.10151 20.123 2.1592 20.0804 2.20168C20.0379 2.24416 19.9803 2.268 19.9203 2.268H19.7288C19.6704 2.26568 19.6151 2.24083 19.5744 2.19859C19.5338 2.15635 19.5109 2.09998 19.5104 2.0412V1.8468C19.5113 1.78814 19.5343 1.73202 19.5749 1.68987C19.6155 1.64773 19.6705 1.62274 19.7288 1.62H19.9203C19.9805 1.62047 20.038 1.6447 20.0806 1.68747C20.1231 1.73024 20.1472 1.78811 20.1477 1.8486V2.0412Z" fill="#E50695"/>
<path d="M17.9299 0.45179C17.9299 0.45179 17.9729 0.145791 18.2181 0.37979L19.387 1.70099C19.4303 1.76673 19.451 1.84496 19.4458 1.92365C19.4406 2.00235 19.4099 2.07716 19.3583 2.13659L18.2181 3.45599C18.2181 3.45599 17.9729 3.64499 17.9443 3.41279L17.9299 0.45179Z" fill="#E50695"/>
<path d="M21.7228 0.45179C21.7228 0.45179 21.6798 0.145791 21.4364 0.37979L20.2658 1.70099C20.2225 1.76673 20.2018 1.84496 20.207 1.92365C20.2121 2.00235 20.2429 2.07716 20.2944 2.13659L21.4364 3.45599C21.4364 3.45599 21.6798 3.64499 21.7103 3.41279L21.7228 0.45179Z" fill="#E50695"/>
<path d="M21.2735 0C21.2735 0 21.5778 0.0432 21.3469 0.2898L20.0331 1.4652C19.9681 1.50927 19.8905 1.53067 19.8123 1.52611C19.734 1.52156 19.6594 1.49131 19.5999 1.44L18.2861 0.2916C18.2861 0.2916 18.1071 0.045 18.3309 0.0162L21.2735 0Z" fill="#E50695"/>
<path d="M21.2735 3.8142C21.2735 3.8142 21.5778 3.7728 21.3469 3.5262L20.0331 2.349C19.9675 2.30566 19.8896 2.28518 19.8114 2.29071C19.7331 2.29624 19.6588 2.32747 19.5999 2.3796L18.2861 3.5262C18.2861 3.5262 18.1071 3.7728 18.3309 3.8016L21.2735 3.8142Z" fill="#E50695"/>
<path d="M20.5844 5.076C20.5844 5.10594 20.5785 5.13558 20.5671 5.16321C20.5556 5.19085 20.5388 5.21593 20.5177 5.23701C20.4966 5.2581 20.4715 5.27477 20.4439 5.28606C20.4164 5.29735 20.3868 5.30304 20.3571 5.3028H19.2187C19.1889 5.30304 19.1594 5.29735 19.1318 5.28606C19.1042 5.27477 19.0792 5.2581 19.058 5.23701C19.0369 5.21593 19.0201 5.19085 19.0087 5.16321C18.9972 5.13558 18.9913 5.10594 18.9913 5.076V4.221C18.9913 4.16037 19.0153 4.10223 19.0579 4.05936C19.1005 4.01649 19.1584 3.9924 19.2187 3.9924H20.3571C20.4174 3.9924 20.4752 4.01649 20.5178 4.05936C20.5604 4.10223 20.5844 4.16037 20.5844 4.221V5.076Z" fill="#E50695"/>
<path d="M10.2976 12.105C10.2976 12.105 11.6973 7.79941 16.8578 7.39621C17.0345 7.39798 17.2046 7.46432 17.3364 7.58288C17.4681 7.70144 17.5525 7.86412 17.5737 8.04061V9.56881C17.6045 9.70199 17.5848 9.8419 17.5187 9.96133C17.4525 10.0808 17.3445 10.1712 17.2157 10.215C17.2157 10.215 16.2152 10.2546 14.9353 11.2194C14.9353 11.2194 14.495 11.5398 14.5344 11.0574C14.5344 11.0574 14.0941 9.89101 11.2534 11.8224C11.257 11.8224 10.0577 12.9492 10.2976 12.105Z" fill="#E50695"/>
<path d="M29.4429 12.105C29.4429 12.105 28.0432 7.79941 22.8827 7.39621C22.706 7.39798 22.5359 7.46432 22.4041 7.58288C22.2724 7.70144 22.188 7.86412 22.1668 8.04061V9.56881C22.136 9.70199 22.1557 9.8419 22.2218 9.96133C22.288 10.0808 22.396 10.1712 22.5247 10.215C22.5247 10.215 23.5253 10.2546 24.8051 11.2194C24.8051 11.2194 25.2455 11.5398 25.2061 11.0574C25.2061 11.0574 25.6464 9.89101 28.4871 11.8224C28.4835 11.8224 29.6845 12.9492 29.4429 12.105Z" fill="#E50695"/>
<path d="M21.7407 6.6852C21.74 6.71593 21.7333 6.74623 21.721 6.77435C21.7086 6.80247 21.6909 6.82787 21.6688 6.8491C21.6467 6.87033 21.6206 6.88697 21.5921 6.89807C21.5636 6.90917 21.5332 6.91452 21.5026 6.9138H18.1357C18.0743 6.91477 18.015 6.89128 17.9708 6.84846C17.9265 6.80563 17.9009 6.74695 17.8995 6.6852V6.2568C17.9002 6.22607 17.9069 6.19578 17.9192 6.16765C17.9316 6.13953 17.9493 6.11413 17.9714 6.0929C17.9935 6.07167 18.0196 6.05503 18.0481 6.04393C18.0766 6.03283 18.107 6.02748 18.1375 6.0282H21.5044C21.535 6.02748 21.5654 6.03283 21.5939 6.04393C21.6224 6.05503 21.6485 6.07167 21.6706 6.0929C21.6927 6.11413 21.7104 6.13953 21.7227 6.16765C21.7351 6.19578 21.7418 6.22607 21.7425 6.2568L21.7407 6.6852Z" fill="#E50695"/>
<path d="M21.1787 7.7742C21.1787 7.9308 21.1053 8.0586 21.0122 8.0586H18.6262C18.5331 8.0586 18.4597 7.9308 18.4597 7.7742V7.2342C18.4597 7.0776 18.5331 6.9498 18.6262 6.9498H21.0122C21.1053 6.9498 21.1787 7.0776 21.1787 7.2342V7.7742Z" fill="#E50695"/>
<path d="M21.0606 8.68501C21.0662 8.73197 21.0531 8.77926 21.0243 8.81665C20.9955 8.85404 20.9532 8.87852 20.9066 8.88481H18.7318C18.6852 8.87852 18.6429 8.85404 18.6141 8.81665C18.5853 8.77926 18.5723 8.73197 18.5779 8.68501V8.30521C18.5718 8.25796 18.5846 8.21021 18.6134 8.17242C18.6423 8.13463 18.6849 8.10988 18.7318 8.10361H20.9066C20.9536 8.10988 20.9962 8.13463 21.025 8.17242C21.0539 8.21021 21.0667 8.25796 21.0606 8.30521V8.68501Z" fill="#E50695"/>
<path d="M21.0194 9.73081C21.0194 9.88561 20.9532 10.0116 20.8726 10.0116H18.7676C18.6853 10.0116 18.6191 9.88561 18.6191 9.73081V9.20161C18.6191 9.04681 18.6853 8.92081 18.7676 8.92081H20.8726C20.9532 8.92081 21.0194 9.04681 21.0194 9.20161V9.73081Z" fill="#E50695"/>
<path d="M20.8995 10.7352C20.8995 10.8702 20.8404 10.9764 20.767 10.9764H18.8732C18.7999 10.9764 18.7408 10.8702 18.7408 10.7352V10.2816C18.7408 10.1502 18.7999 10.0404 18.8732 10.0404H20.7634C20.8368 10.0404 20.8959 10.1502 20.8959 10.2816L20.8995 10.7352Z" fill="#E50695"/>
</g>
<defs>
<clipPath id="clip0_20_546">
<rect width="40" height="63" fill="white"/>
</clipPath>
</defs>
</svg>
