<svg width="14" height="14" viewBox="0 0 14 14" fill="none" xmlns="http://www.w3.org/2000/svg">
<g clip-path="url(#clip0_54_897)">
<path opacity="0.12" d="M11.2441 5.33042L5.27247 2.34461C3.52425 1.4705 2.65013 1.03344 2.19645 1.17986C1.80485 1.30625 1.50878 1.62958 1.4173 2.03078C1.31133 2.49558 1.82352 3.32789 2.84791 4.99252L3.48125 6.02171C3.69985 6.37692 3.80914 6.55453 3.85179 6.74467C3.88951 6.91281 3.88951 7.08723 3.85179 7.25537C3.80914 7.44551 3.69985 7.62312 3.48125 7.97833L2.84791 9.00752C1.82352 10.6721 1.31133 11.5045 1.4173 11.9693C1.50878 12.3705 1.80485 12.6938 2.19645 12.8202C2.65013 12.9666 3.52424 12.5295 5.27245 11.6554L5.27247 11.6554L11.2441 8.66962C12.3188 8.13224 12.8562 7.86355 13.0287 7.49997C13.1787 7.18356 13.1787 6.81648 13.0287 6.50007C12.8562 6.13649 12.3188 5.8678 11.2441 5.33042Z" fill="white"/>
<path fill-rule="evenodd" clip-rule="evenodd" d="M5.46821 1.95327L5.44854 1.94343C4.59102 1.51467 3.92321 1.18077 3.41349 0.974072C3.15573 0.869548 2.91982 0.789689 2.70715 0.747856C2.49645 0.706411 2.27394 0.695127 2.06216 0.763477C1.5237 0.937257 1.11661 1.38185 0.990832 1.9335C0.941362 2.15047 0.972159 2.37113 1.03196 2.57737C1.09233 2.78554 1.19261 3.01351 1.31939 3.26109C1.57008 3.75067 1.96139 4.38655 2.46387 5.20306L2.47539 5.22179L3.10873 6.25097C3.34387 6.63307 3.40214 6.73857 3.42498 6.84039C3.44856 6.94549 3.44856 7.0545 3.42498 7.15959C3.40214 7.26141 3.34387 7.36691 3.10873 7.74901L2.47539 8.7782L2.46388 8.79689C1.9614 9.61342 1.57009 10.2493 1.31939 10.7389C1.19261 10.9865 1.09233 11.2144 1.03196 11.4226C0.972159 11.6289 0.941362 11.8495 0.990832 12.0665C1.11661 12.6181 1.5237 13.0627 2.06216 13.2365C2.27394 13.3049 2.49645 13.2936 2.70715 13.2521C2.91982 13.2103 3.15573 13.1304 3.4135 13.0259C3.92321 12.8192 4.591 12.4853 5.4485 12.0566L5.46821 12.0467L11.4398 9.0609L11.4602 9.05071C11.9803 8.79067 12.398 8.58185 12.7052 8.39152C13.0108 8.20221 13.2812 7.9886 13.424 7.68742C13.6304 7.25236 13.6304 6.74762 13.424 6.31257C13.2812 6.01139 13.0108 5.79777 12.7052 5.60847C12.398 5.41813 11.9803 5.20932 11.4602 4.94928L11.4602 4.94927L11.4398 4.93908L5.46821 1.95327ZM2.33091 1.59618C2.34596 1.59132 2.40285 1.57977 2.53827 1.6064C2.67173 1.63266 2.84868 1.68924 3.08468 1.78494C3.5586 1.97712 4.19565 2.29527 5.07689 2.73589L11.0485 5.72171C11.5937 5.99429 11.9752 6.18554 12.2444 6.35231C12.5193 6.52259 12.6039 6.62512 12.6335 6.68753C12.7272 6.88528 12.7272 7.1147 12.6335 7.31246C12.6039 7.37487 12.5193 7.47739 12.2444 7.64767C11.9752 7.81444 11.5937 8.00569 11.0485 8.27828L5.07689 11.2641C4.19565 11.7047 3.5586 12.0229 3.08468 12.215C2.84868 12.3107 2.67173 12.3673 2.53827 12.3936C2.40285 12.4202 2.34596 12.4087 2.33091 12.4038C2.08615 12.3248 1.90111 12.1227 1.84394 11.872C1.84042 11.8565 1.83391 11.7989 1.87235 11.6663C1.91022 11.5357 1.98214 11.3644 2.09822 11.1377C2.33131 10.6825 2.70422 10.0759 3.22059 9.23678L3.85393 8.2076L3.88696 8.154L3.88696 8.15399C4.05277 7.88505 4.18692 7.66746 4.25607 7.43748H6.41671C6.65833 7.43748 6.85421 7.2416 6.85421 6.99998C6.85421 6.75835 6.65833 6.56248 6.41671 6.56248H4.25607C4.18691 6.33251 4.05276 6.11492 3.88696 5.84598L3.85393 5.79238L3.22059 4.7632C2.70422 3.9241 2.33131 3.31748 2.09822 2.86228C1.98214 2.6356 1.91022 2.46431 1.87235 2.33368C1.83391 2.20112 1.84042 2.14344 1.84394 2.12801C1.90111 1.87726 2.08615 1.67518 2.33091 1.59618Z" fill="white"/>
</g>
<defs>
<clipPath id="clip0_54_897">
<rect width="14" height="14" fill="white"/>
</clipPath>
</defs>
</svg>
