<svg width="18" height="20" viewBox="0 0 18 20" fill="none" xmlns="http://www.w3.org/2000/svg">
<path fill-rule="evenodd" clip-rule="evenodd" d="M9 1.52082C7.38984 1.52082 5.53446 2.10346 3.98969 2.74768C3.0895 3.12308 2.7655 3.26559 2.39073 3.6132C2.09946 3.88335 1.75812 4.39553 1.62089 4.76834C1.4463 5.24264 1.4375 5.6926 1.4375 6.90496L1.4375 8.80578C1.4375 10.9544 1.4446 11.8893 1.76446 12.871C2.0125 13.6322 2.61615 14.6745 3.15305 15.2685C3.84985 16.0394 4.45979 16.3951 5.88259 17.2114C6.53307 17.5846 7.16259 17.9084 7.71972 18.1371C8.29329 18.3726 8.72445 18.4791 9 18.4791C9.27554 18.4791 9.70671 18.3726 10.2803 18.1371C10.8374 17.9084 11.4669 17.5846 12.1174 17.2114C13.5402 16.3951 14.1501 16.0394 14.847 15.2685C15.3838 14.6745 15.9875 13.6322 16.2355 12.871C16.5554 11.8893 16.5625 10.9544 16.5625 8.80578L16.5625 6.90496C16.5625 5.6926 16.5537 5.24264 16.3791 4.76834C16.2419 4.39553 15.9005 3.88335 15.6093 3.6132C15.2345 3.26559 14.9105 3.12308 14.0103 2.74768C12.4655 2.10346 10.6102 1.52082 9 1.52082ZM3.46044 1.47861C5.05381 0.814126 7.11279 0.145818 9 0.145818C10.8872 0.145818 12.9462 0.814127 14.5396 1.47861C14.5601 1.4872 14.5805 1.4957 14.6008 1.50414C15.4297 1.84965 15.9748 2.07688 16.5443 2.60508C16.9943 3.02248 17.4574 3.71734 17.6695 4.29336C17.9379 5.02271 17.9378 5.72564 17.9375 6.80312C17.9375 6.8367 17.9375 6.87064 17.9375 6.90496L17.9375 8.80578L17.9375 8.91222C17.9376 10.9256 17.9377 12.0853 17.5429 13.2969C17.235 14.2419 16.5335 15.4532 15.867 16.1905C15.0127 17.1357 14.2207 17.59 12.8532 18.3745L12.8016 18.4041C12.123 18.7934 11.4361 19.149 10.8024 19.4091C10.1852 19.6625 9.55111 19.8541 9 19.8541C8.44889 19.8541 7.81484 19.6625 7.19758 19.4091C6.56388 19.149 5.87697 18.7934 5.19835 18.4041L5.14679 18.3745C3.7793 17.59 2.98732 17.1357 2.13299 16.1905C1.46654 15.4532 0.765004 14.2419 0.457105 13.2969C0.0623076 12.0853 0.0623761 10.9256 0.0624952 8.91221C0.0624973 8.877 0.0624993 8.84152 0.0624993 8.80578L0.0624993 6.90496C0.0624993 6.87064 0.0624913 6.8367 0.0624834 6.80313C0.0622281 5.72565 0.0620615 5.02271 0.330539 4.29336C0.542572 3.71734 1.00565 3.02248 1.45568 2.60508C2.02515 2.07688 2.5703 1.84965 3.39921 1.50414C3.41945 1.4957 3.43986 1.4872 3.46044 1.47861Z" fill="#FFCC4D"/>
</svg>
