<svg width="22" height="22" viewBox="0 0 22 22" fill="none" xmlns="http://www.w3.org/2000/svg">
<path opacity="0.12" d="M2.75 7.90497C2.75 6.73102 2.75 6.14405 2.97572 5.53086C3.15035 5.05645 3.55256 4.45293 3.9232 4.10915C4.40228 3.6648 4.84321 3.48092 5.72507 3.11315C7.29414 2.4588 9.25131 1.83333 11 1.83333C12.7487 1.83333 14.7059 2.4588 16.2749 3.11316C17.1568 3.48092 17.5977 3.6648 18.0768 4.10915C18.4474 4.45293 18.8496 5.05645 19.0243 5.53086C19.25 6.14405 19.25 6.73102 19.25 7.90497V9.80579C19.25 11.9197 19.25 12.9767 18.8892 14.084C18.6112 14.9371 17.9586 16.0639 17.357 16.7295C16.5761 17.5935 15.8706 17.9982 14.4595 18.8077C13.1304 19.5702 11.8267 20.1666 11 20.1666C10.1733 20.1666 8.86957 19.5702 7.54047 18.8077C6.12944 17.9982 5.42392 17.5935 4.64302 16.7295C4.04135 16.0639 3.38875 14.9371 3.11078 14.084C2.75 12.9767 2.75 11.9197 2.75 9.80579V7.90497Z" fill="#FFCC4D"/>
<path fill-rule="evenodd" clip-rule="evenodd" d="M11 2.52083C9.38987 2.52083 7.53449 3.10347 5.98972 3.74769C5.08953 4.1231 4.76553 4.2656 4.39076 4.61321C4.0995 4.88336 3.75816 5.39554 3.62093 5.76835C3.44633 6.24265 3.43753 6.69261 3.43753 7.90497L3.43753 9.80579C3.43753 11.9544 3.44463 12.8893 3.76449 13.871C4.01254 14.6323 4.61618 15.6745 5.15308 16.2685C5.84988 17.0394 6.45982 17.3951 7.88262 18.2114C8.5331 18.5846 9.16263 18.9084 9.71975 19.1371C10.2933 19.3726 10.7245 19.4791 11 19.4791C11.2756 19.4791 11.7067 19.3726 12.2803 19.1371C12.8374 18.9084 13.467 18.5846 14.1174 18.2114C15.5402 17.3951 16.1502 17.0394 16.847 16.2685C17.3839 15.6745 17.9875 14.6323 18.2356 13.871C18.5554 12.8893 18.5625 11.9544 18.5625 9.80579L18.5625 7.90497C18.5625 6.69261 18.5537 6.24265 18.3791 5.76835C18.2419 5.39554 17.9006 4.88336 17.6093 4.61321C17.2345 4.2656 16.9105 4.1231 16.0103 3.74769C14.4656 3.10347 12.6102 2.52083 11 2.52083ZM5.46048 2.47862C7.05384 1.81414 9.11282 1.14583 11 1.14583C12.8872 1.14583 14.9462 1.81414 16.5396 2.47862C16.5602 2.48721 16.5806 2.49572 16.6008 2.50415C17.4297 2.84966 17.9749 3.0769 18.5443 3.60509C18.9944 4.0225 19.4575 4.71735 19.6695 5.29337C19.938 6.02273 19.9378 6.72566 19.9375 7.80313C19.9375 7.83671 19.9375 7.87065 19.9375 7.90497L19.9375 9.80579L19.9375 9.91223C19.9377 11.9256 19.9377 13.0853 19.5429 14.297C19.235 15.2419 18.5335 16.4532 17.867 17.1905C17.0127 18.1357 16.2207 18.59 14.8532 19.3745L14.8017 19.4041C14.1231 19.7934 13.4361 20.149 12.8024 20.4091C12.1852 20.6625 11.5511 20.8541 11 20.8541C10.4489 20.8541 9.81487 20.6625 9.19761 20.4091C8.56391 20.149 7.877 19.7934 7.19838 19.4041L7.14682 19.3745C5.77933 18.59 4.98735 18.1357 4.13302 17.1905C3.46657 16.4532 2.76503 15.2419 2.45714 14.297C2.06234 13.0853 2.06241 11.9256 2.06253 9.91223C2.06253 9.87701 2.06253 9.84154 2.06253 9.80579L2.06253 7.90497C2.06253 7.87065 2.06252 7.83671 2.06251 7.80314C2.06226 6.72566 2.06209 6.02273 2.33057 5.29337C2.5426 4.71735 3.00568 4.0225 3.45571 3.60509C4.02518 3.0769 4.57033 2.84966 5.39924 2.50415C5.41948 2.49572 5.43989 2.48721 5.46048 2.47862Z" fill="#FFCC4D"/>
<path d="M11.0697 6.74629L9.00797 8.79543L9.97597 9.91429L10.8811 8.93372V14H12.4903V6.74629H11.0697Z" fill="#FFCC4D"/>
</svg>
